# xmcd
#
# Track frame offsets: 
#        150
#        16533
#        27560
#        46093
#        59058
#        69645
#        95540
#        110480
#        125115
#        147218
#        157103
#        177558
#
# Disc length: 2522 seconds
#
# Revision: 2
# Processed by: cddbd v1.5.2PL0 Copyright (c) Steve Scherf et al.
# Submitted via: ExactAudioCopy v0.95b3
#
DISCID=ae09d80c
DTITLE=Anson Funderburgh and The Rockets - Sins
DYEAR=1988
DGENRE=Blues
TTITLE0=A Man Needs His Loving
TTITLE1=I'll Be True
TTITLE2=Don't  Want No Leftovers
TTITLE3=Walked All Night
TTITLE4=My Kind Of Baby
TTITLE5=Changing Neighborhoods
TTITLE6=Can't  Stop  Loving
TTITLE7=Chill Out
TTITLE8=My Heart
TTITLE9=Trying To Make You Mine
TTITLE10=Sleeping In The Ground
TTITLE11=Hard Hearted Woman
EXTD=
EXTT0=
EXTT1=
EXTT2=
EXTT3=
EXTT4=
EXTT5=
EXTT6=
EXTT7=
EXTT8=
EXTT9=
EXTT10=
EXTT11=
PLAYORDER=
